<svg width="683" height="683" viewBox="0 0 683 683" fill="none" xmlns="http://www.w3.org/2000/svg">
<g clip-path="url(#clip0_349_2473)">
<path d="M250.4 59.9999C216.667 66.1333 188.4 87.0666 173.467 116.933C164.667 134.667 160.133 161.867 164.533 170.4C172 184.8 193.333 178.933 193.333 162.4C193.333 160 194.267 153.733 195.333 148.667C200.8 123.067 221.067 100.667 246 93.0666C283.6 81.4666 323.867 102.8 336.933 141.2C340.667 152.133 341.067 171.733 337.867 182.8C330.8 206.667 311.733 225.867 286.667 234.133C279.733 236.4 270.667 236.667 143.733 237.067L8.13333 237.467L4 241.467C0.666667 244.8 0 246.667 0 251.867C0 255.467 0.933333 259.333 2.13333 261.2C7.06667 268.133 3.33333 268 142.933 268C221.467 268 276.267 267.467 281.867 266.667C338 258.533 378.267 206 370.667 150.533C367.467 126.933 358.8 108.533 343.067 91.8666C329.067 77.0666 312.267 67.1999 291.333 61.3333C284.267 59.4666 258.267 58.5333 250.4 59.9999Z" fill="black"/>
<path d="M533.333 89.4666C468 97.3333 416.667 152.667 415.6 216.933C415.333 229.467 417.733 234.267 425.467 236.933C431.733 238.933 436.667 237.733 441.333 233.2C444.667 229.867 445.2 228 446 219.067C450.133 170.533 480.267 133.733 525.333 122.533C534.933 120.133 539.067 119.733 553.333 120.4C564.4 120.933 572.667 122 578.133 123.733C612.133 134.533 637.467 160.267 648.267 194.667C650.933 203.2 651.333 207.333 651.2 223.333C651.2 239.867 650.8 243.2 647.6 252.667C641.733 270.267 634.4 281.867 620.667 295.6C610 306.267 606.667 308.533 594.533 314.4C570 326.267 596.4 325.333 288.933 325.333C138.933 325.333 14.4 325.733 12.1333 326.133C9.73333 326.667 6.13333 328.8 3.86667 330.933C0.666667 334.267 0 336 0 341.333C0 346.8 0.666667 348.4 4 351.867C6.66667 354.533 9.86667 356.133 13.7333 356.667C24.6667 358.267 565.467 356.533 573.333 354.933C600.8 349.2 624.267 336.8 642.933 318.267C660.133 301.067 671.2 282.667 678.133 259.333C682.933 243.2 684.133 214 680.667 197.2C676.133 174.4 667.733 156.133 653.6 138.667C625.2 103.067 578.667 83.9999 533.333 89.4666Z" fill="black"/>
<path d="M8.53333 416.533C2.66667 419.2 0 423.467 0 430.8C0 436.133 0.666667 437.867 4.13333 441.2L8.13333 445.333L269.733 445.6C520.667 446 531.6 446.133 538.667 448.533C564.933 457.333 583.6 476.4 590.8 501.333C593.6 511.2 592.933 531.2 589.467 541.333C581.6 564.267 564.267 581.6 541.333 589.467C531.2 592.933 511.2 593.6 501.333 590.8C489.067 587.2 478.133 580.8 468.533 571.333C454.8 557.867 448 543.067 446 522.267C445.333 515.467 444.267 512.267 441.867 509.467C433.6 499.6 417.467 504.4 415.333 517.2C414.133 524.267 416.8 541.867 420.667 553.467C426.267 569.6 432.667 579.6 446.533 593.333C457.467 604.267 461.2 607.067 472 612.267C490.267 621.333 498.667 623.2 519.333 623.2C539.467 623.2 548.133 621.333 564.933 613.2C585.867 603.2 603.2 585.867 613.2 564.933C621.333 548.133 623.2 539.467 623.2 519.333C623.2 498.667 621.333 490.267 612.267 472C607.067 461.2 604.267 457.467 593.333 446.533C575.333 428.4 557.733 419.333 533.867 416C527.067 415.067 439.6 414.667 268.267 414.667C55.8667 414.8 12 415.067 8.53333 416.533Z" fill="black"/>
</g>
<defs>
<clipPath id="clip0_349_2473">
<rect width="682.667" height="682.667" fill="white"/>
</clipPath>
</defs>
</svg>
